<?xml version="1.0" encoding="utf-8" standalone="no"?>
<!DOCTYPE svg PUBLIC "-//W3C//DTD SVG 1.1//EN"
  "http://www.w3.org/Graphics/SVG/1.1/DTD/svg11.dtd">
<svg xmlns:xlink="http://www.w3.org/1999/xlink" width="432pt" height="288pt" viewBox="0 0 432 288" xmlns="http://www.w3.org/2000/svg" version="1.1">
 <metadata>
  <rdf:RDF xmlns:dc="http://purl.org/dc/elements/1.1/" xmlns:cc="http://creativecommons.org/ns#" xmlns:rdf="http://www.w3.org/1999/02/22-rdf-syntax-ns#">
   <cc:Work>
    <dc:type rdf:resource="http://purl.org/dc/dcmitype/StillImage"/>
    <dc:date>2022-02-04T16:45:33.370198</dc:date>
    <dc:format>image/svg+xml</dc:format>
    <dc:creator>
     <cc:Agent>
      <dc:title>Matplotlib v3.5.1, https://matplotlib.org/</dc:title>
     </cc:Agent>
    </dc:creator>
   </cc:Work>
  </rdf:RDF>
 </metadata>
 <defs>
  <style type="text/css">*{stroke-linejoin: round; stroke-linecap: butt}</style>
 </defs>
 <g id="figure_1">
  <g id="patch_1">
   <path d="M 0 288 
L 432 288 
L 432 0 
L 0 0 
L 0 288 
z
" style="fill: none"/>
  </g>
  <g id="axes_1">
   <g id="patch_2">
    <path d="M 54 252 
L 388.8 252 
L 388.8 34.56 
L 54 34.56 
z
" style="fill: #ffffff"/>
   </g>
   <g id="matplotlib.axis_1">
    <g id="xtick_1">
     <g id="line2d_1">
      <defs>
       <path id="mb32c520d08" d="M 0 0 
L 0 3.5 
" style="stroke: #000000; stroke-width: 0.8"/>
      </defs>
      <g>
       <use xlink:href="#mb32c520d08" x="64.697455" y="252" style="stroke: #000000; stroke-width: 0.8"/>
      </g>
     </g>
     <g id="text_1">
      <!-- −6 -->
      <g transform="translate(57.326361 266.598437)scale(0.1 -0.1)">
       <defs>
        <path id="DejaVuSans-2212" d="M 678 2272 
L 4684 2272 
L 4684 1741 
L 678 1741 
L 678 2272 
z
" transform="scale(0.015625)"/>
        <path id="DejaVuSans-36" d="M 2113 2584 
Q 1688 2584 1439 2293 
Q 1191 2003 1191 1497 
Q 1191 994 1439 701 
Q 1688 409 2113 409 
Q 2538 409 2786 701 
Q 3034 994 3034 1497 
Q 3034 2003 2786 2293 
Q 2538 2584 2113 2584 
z
M 3366 4563 
L 3366 3988 
Q 3128 4100 2886 4159 
Q 2644 4219 2406 4219 
Q 1781 4219 1451 3797 
Q 1122 3375 1075 2522 
Q 1259 2794 1537 2939 
Q 1816 3084 2150 3084 
Q 2853 3084 3261 2657 
Q 3669 2231 3669 1497 
Q 3669 778 3244 343 
Q 2819 -91 2113 -91 
Q 1303 -91 875 529 
Q 447 1150 447 2328 
Q 447 3434 972 4092 
Q 1497 4750 2381 4750 
Q 2619 4750 2861 4703 
Q 3103 4656 3366 4563 
z
" transform="scale(0.015625)"/>
       </defs>
       <use xlink:href="#DejaVuSans-2212"/>
       <use xlink:href="#DejaVuSans-36" x="83.789062"/>
      </g>
     </g>
    </g>
    <g id="xtick_2">
     <g id="line2d_2">
      <g>
       <use xlink:href="#mb32c520d08" x="116.931637" y="252" style="stroke: #000000; stroke-width: 0.8"/>
      </g>
     </g>
     <g id="text_2">
      <!-- −4 -->
      <g transform="translate(109.560543 266.598437)scale(0.1 -0.1)">
       <defs>
        <path id="DejaVuSans-34" d="M 2419 4116 
L 825 1625 
L 2419 1625 
L 2419 4116 
z
M 2253 4666 
L 3047 4666 
L 3047 1625 
L 3713 1625 
L 3713 1100 
L 3047 1100 
L 3047 0 
L 2419 0 
L 2419 1100 
L 313 1100 
L 313 1709 
L 2253 4666 
z
" transform="scale(0.015625)"/>
       </defs>
       <use xlink:href="#DejaVuSans-2212"/>
       <use xlink:href="#DejaVuSans-34" x="83.789062"/>
      </g>
     </g>
    </g>
    <g id="xtick_3">
     <g id="line2d_3">
      <g>
       <use xlink:href="#mb32c520d08" x="169.165818" y="252" style="stroke: #000000; stroke-width: 0.8"/>
      </g>
     </g>
     <g id="text_3">
      <!-- −2 -->
      <g transform="translate(161.794725 266.598437)scale(0.1 -0.1)">
       <defs>
        <path id="DejaVuSans-32" d="M 1228 531 
L 3431 531 
L 3431 0 
L 469 0 
L 469 531 
Q 828 903 1448 1529 
Q 2069 2156 2228 2338 
Q 2531 2678 2651 2914 
Q 2772 3150 2772 3378 
Q 2772 3750 2511 3984 
Q 2250 4219 1831 4219 
Q 1534 4219 1204 4116 
Q 875 4013 500 3803 
L 500 4441 
Q 881 4594 1212 4672 
Q 1544 4750 1819 4750 
Q 2544 4750 2975 4387 
Q 3406 4025 3406 3419 
Q 3406 3131 3298 2873 
Q 3191 2616 2906 2266 
Q 2828 2175 2409 1742 
Q 1991 1309 1228 531 
z
" transform="scale(0.015625)"/>
       </defs>
       <use xlink:href="#DejaVuSans-2212"/>
       <use xlink:href="#DejaVuSans-32" x="83.789062"/>
      </g>
     </g>
    </g>
    <g id="xtick_4">
     <g id="line2d_4">
      <g>
       <use xlink:href="#mb32c520d08" x="221.4" y="252" style="stroke: #000000; stroke-width: 0.8"/>
      </g>
     </g>
     <g id="text_4">
      <!-- 0 -->
      <g transform="translate(218.21875 266.598437)scale(0.1 -0.1)">
       <defs>
        <path id="DejaVuSans-30" d="M 2034 4250 
Q 1547 4250 1301 3770 
Q 1056 3291 1056 2328 
Q 1056 1369 1301 889 
Q 1547 409 2034 409 
Q 2525 409 2770 889 
Q 3016 1369 3016 2328 
Q 3016 3291 2770 3770 
Q 2525 4250 2034 4250 
z
M 2034 4750 
Q 2819 4750 3233 4129 
Q 3647 3509 3647 2328 
Q 3647 1150 3233 529 
Q 2819 -91 2034 -91 
Q 1250 -91 836 529 
Q 422 1150 422 2328 
Q 422 3509 836 4129 
Q 1250 4750 2034 4750 
z
" transform="scale(0.015625)"/>
       </defs>
       <use xlink:href="#DejaVuSans-30"/>
      </g>
     </g>
    </g>
    <g id="xtick_5">
     <g id="line2d_5">
      <g>
       <use xlink:href="#mb32c520d08" x="273.634182" y="252" style="stroke: #000000; stroke-width: 0.8"/>
      </g>
     </g>
     <g id="text_5">
      <!-- 2 -->
      <g transform="translate(270.452932 266.598437)scale(0.1 -0.1)">
       <use xlink:href="#DejaVuSans-32"/>
      </g>
     </g>
    </g>
    <g id="xtick_6">
     <g id="line2d_6">
      <g>
       <use xlink:href="#mb32c520d08" x="325.868363" y="252" style="stroke: #000000; stroke-width: 0.8"/>
      </g>
     </g>
     <g id="text_6">
      <!-- 4 -->
      <g transform="translate(322.687113 266.598437)scale(0.1 -0.1)">
       <use xlink:href="#DejaVuSans-34"/>
      </g>
     </g>
    </g>
    <g id="xtick_7">
     <g id="line2d_7">
      <g>
       <use xlink:href="#mb32c520d08" x="378.102545" y="252" style="stroke: #000000; stroke-width: 0.8"/>
      </g>
     </g>
     <g id="text_7">
      <!-- 6 -->
      <g transform="translate(374.921295 266.598437)scale(0.1 -0.1)">
       <use xlink:href="#DejaVuSans-36"/>
      </g>
     </g>
    </g>
   </g>
   <g id="matplotlib.axis_2">
    <g id="ytick_1">
     <g id="line2d_8">
      <defs>
       <path id="mb82173460b" d="M 0 0 
L -3.5 0 
" style="stroke: #000000; stroke-width: 0.8"/>
      </defs>
      <g>
       <use xlink:href="#mb82173460b" x="54" y="251.249337" style="stroke: #000000; stroke-width: 0.8"/>
      </g>
     </g>
     <g id="text_8">
      <!-- −6 -->
      <g transform="translate(32.257812 255.048556)scale(0.1 -0.1)">
       <use xlink:href="#DejaVuSans-2212"/>
       <use xlink:href="#DejaVuSans-36" x="83.789062"/>
      </g>
     </g>
    </g>
    <g id="ytick_2">
     <g id="line2d_9">
      <g>
       <use xlink:href="#mb82173460b" x="54" y="225.398624" style="stroke: #000000; stroke-width: 0.8"/>
      </g>
     </g>
     <g id="text_9">
      <!-- −4 -->
      <g transform="translate(32.257812 229.197843)scale(0.1 -0.1)">
       <use xlink:href="#DejaVuSans-2212"/>
       <use xlink:href="#DejaVuSans-34" x="83.789062"/>
      </g>
     </g>
    </g>
    <g id="ytick_3">
     <g id="line2d_10">
      <g>
       <use xlink:href="#mb82173460b" x="54" y="199.547912" style="stroke: #000000; stroke-width: 0.8"/>
      </g>
     </g>
     <g id="text_10">
      <!-- −2 -->
      <g transform="translate(32.257812 203.34713)scale(0.1 -0.1)">
       <use xlink:href="#DejaVuSans-2212"/>
       <use xlink:href="#DejaVuSans-32" x="83.789062"/>
      </g>
     </g>
    </g>
    <g id="ytick_4">
     <g id="line2d_11">
      <g>
       <use xlink:href="#mb82173460b" x="54" y="173.697199" style="stroke: #000000; stroke-width: 0.8"/>
      </g>
     </g>
     <g id="text_11">
      <!-- 0 -->
      <g transform="translate(40.6375 177.496418)scale(0.1 -0.1)">
       <use xlink:href="#DejaVuSans-30"/>
      </g>
     </g>
    </g>
    <g id="ytick_5">
     <g id="line2d_12">
      <g>
       <use xlink:href="#mb82173460b" x="54" y="147.846487" style="stroke: #000000; stroke-width: 0.8"/>
      </g>
     </g>
     <g id="text_12">
      <!-- 2 -->
      <g transform="translate(40.6375 151.645705)scale(0.1 -0.1)">
       <use xlink:href="#DejaVuSans-32"/>
      </g>
     </g>
    </g>
    <g id="ytick_6">
     <g id="line2d_13">
      <g>
       <use xlink:href="#mb82173460b" x="54" y="121.995774" style="stroke: #000000; stroke-width: 0.8"/>
      </g>
     </g>
     <g id="text_13">
      <!-- 4 -->
      <g transform="translate(40.6375 125.794993)scale(0.1 -0.1)">
       <use xlink:href="#DejaVuSans-34"/>
      </g>
     </g>
    </g>
    <g id="ytick_7">
     <g id="line2d_14">
      <g>
       <use xlink:href="#mb82173460b" x="54" y="96.145061" style="stroke: #000000; stroke-width: 0.8"/>
      </g>
     </g>
     <g id="text_14">
      <!-- 6 -->
      <g transform="translate(40.6375 99.94428)scale(0.1 -0.1)">
       <use xlink:href="#DejaVuSans-36"/>
      </g>
     </g>
    </g>
    <g id="ytick_8">
     <g id="line2d_15">
      <g>
       <use xlink:href="#mb82173460b" x="54" y="70.294349" style="stroke: #000000; stroke-width: 0.8"/>
      </g>
     </g>
     <g id="text_15">
      <!-- 8 -->
      <g transform="translate(40.6375 74.093568)scale(0.1 -0.1)">
       <defs>
        <path id="DejaVuSans-38" d="M 2034 2216 
Q 1584 2216 1326 1975 
Q 1069 1734 1069 1313 
Q 1069 891 1326 650 
Q 1584 409 2034 409 
Q 2484 409 2743 651 
Q 3003 894 3003 1313 
Q 3003 1734 2745 1975 
Q 2488 2216 2034 2216 
z
M 1403 2484 
Q 997 2584 770 2862 
Q 544 3141 544 3541 
Q 544 4100 942 4425 
Q 1341 4750 2034 4750 
Q 2731 4750 3128 4425 
Q 3525 4100 3525 3541 
Q 3525 3141 3298 2862 
Q 3072 2584 2669 2484 
Q 3125 2378 3379 2068 
Q 3634 1759 3634 1313 
Q 3634 634 3220 271 
Q 2806 -91 2034 -91 
Q 1263 -91 848 271 
Q 434 634 434 1313 
Q 434 1759 690 2068 
Q 947 2378 1403 2484 
z
M 1172 3481 
Q 1172 3119 1398 2916 
Q 1625 2713 2034 2713 
Q 2441 2713 2670 2916 
Q 2900 3119 2900 3481 
Q 2900 3844 2670 4047 
Q 2441 4250 2034 4250 
Q 1625 4250 1398 4047 
Q 1172 3844 1172 3481 
z
" transform="scale(0.015625)"/>
       </defs>
       <use xlink:href="#DejaVuSans-38"/>
      </g>
     </g>
    </g>
    <g id="ytick_9">
     <g id="line2d_16">
      <g>
       <use xlink:href="#mb82173460b" x="54" y="44.443636" style="stroke: #000000; stroke-width: 0.8"/>
      </g>
     </g>
     <g id="text_16">
      <!-- 10 -->
      <g transform="translate(34.275 48.242855)scale(0.1 -0.1)">
       <defs>
        <path id="DejaVuSans-31" d="M 794 531 
L 1825 531 
L 1825 4091 
L 703 3866 
L 703 4441 
L 1819 4666 
L 2450 4666 
L 2450 531 
L 3481 531 
L 3481 0 
L 794 0 
L 794 531 
z
" transform="scale(0.015625)"/>
       </defs>
       <use xlink:href="#DejaVuSans-31"/>
       <use xlink:href="#DejaVuSans-30" x="63.623047"/>
      </g>
     </g>
    </g>
   </g>
   <g id="line2d_17">
    <path d="M 123.460909 121.995774 
L 120.686995 123.527423 
L 118.790439 125.46799 
L 117.544981 127.757268 
L 116.759954 130.340928 
L 116.276965 133.170195 
L 115.966762 136.201514 
L 115.726291 139.396196 
L 115.475929 142.720061 
L 115.156893 146.143079 
L 114.728814 149.639008 
L 114.167465 153.185043 
L 113.462654 156.76147 
L 112.616247 160.351334 
L 111.640348 163.940118 
L 110.555601 167.51544 
L 109.389631 171.066765 
L 108.175598 174.585139 
L 106.950886 178.062937 
L 105.755884 181.493638 
L 104.632893 184.871616 
L 103.625129 188.19195 
L 102.775824 191.450263 
L 102.127423 194.642569 
L 101.720871 197.765153 
L 101.594985 200.814459 
L 101.785904 203.787004 
L 102.326624 206.679303 
L 103.246595 209.487822 
L 104.5714 212.208931 
L 106.322489 214.838882 
L 108.516978 217.373798 
L 111.167513 219.809675 
L 114.282178 222.142386 
L 117.864461 224.367708 
L 121.913272 226.481343 
L 126.422996 228.478957 
L 131.383596 230.356218 
L 136.780756 232.108835 
L 142.596049 233.73261 
L 148.807157 235.223479 
L 155.388098 236.577565 
L 162.309503 237.791221 
L 169.538901 238.861076 
L 177.041038 239.784079 
L 184.778202 240.557535 
L 192.710581 241.179145 
L 200.79662 241.647029 
L 208.9934 241.959757 
L 217.257018 242.116364 
L 225.542982 242.116364 
L 233.8066 241.959757 
L 242.00338 241.647029 
L 250.089419 241.179145 
L 258.021798 240.557535 
L 265.758962 239.784079 
L 273.261099 238.861076 
L 280.490497 237.791221 
L 287.411902 236.577565 
L 293.992843 235.223479 
L 300.203951 233.73261 
L 306.019244 232.108835 
L 311.416404 230.356218 
L 316.377004 228.478957 
L 320.886728 226.481343 
L 324.935539 224.367708 
L 328.517822 222.142386 
L 331.632487 219.809675 
L 334.283022 217.373798 
L 336.477511 214.838882 
L 338.2286 212.208931 
L 339.553405 209.487822 
L 340.473376 206.679303 
L 341.014096 203.787004 
L 341.205015 200.814459 
L 341.079129 197.765153 
L 340.672577 194.642569 
L 340.024176 191.450263 
L 339.174871 188.19195 
L 338.167107 184.871616 
L 337.044116 181.493638 
L 335.849114 178.062937 
L 334.624402 174.585139 
L 333.410369 171.066765 
L 332.244399 167.51544 
L 331.159652 163.940118 
L 330.183753 160.351334 
L 329.337346 156.76147 
L 328.632535 153.185043 
L 328.071186 149.639008 
L 327.643107 146.143079 
L 327.324071 142.720061 
L 327.073709 139.396196 
L 326.833238 136.201514 
L 326.523035 133.170195 
L 326.040046 130.340928 
L 325.255019 127.757268 
L 324.009561 125.46799 
L 322.113005 123.527423 
L 319.339091 121.995774 
" clip-path="url(#p17c872fcd4)" style="fill: none; stroke: #000000; stroke-width: 2.5; stroke-linecap: square"/>
   </g>
   <g id="line2d_18">
    <path d="M 129.990182 125.227113 
L 128.547893 124.314188 
L 127.122925 123.403241 
L 125.715277 122.494273 
L 124.32495 121.587282 
L 122.951944 120.68227 
L 121.596259 119.779236 
L 120.257895 118.87818 
L 118.936851 117.979102 
L 117.633129 117.082002 
L 116.346727 116.186881 
L 115.077646 115.293737 
L 113.825885 114.402572 
L 112.591446 113.513385 
L 111.374327 112.626177 
L 110.174529 111.740946 
L 108.992052 110.857693 
L 107.826895 109.976419 
L 106.67906 109.097123 
L 105.548545 108.219805 
L 104.435351 107.344465 
L 103.339478 106.471104 
L 102.260925 105.59972 
L 101.199693 104.730315 
L 100.155783 103.862888 
L 99.129192 102.997439 
L 98.119923 102.133968 
L 97.127975 101.272476 
L 96.153347 100.412961 
L 95.19604 99.555425 
L 94.256054 98.699867 
L 93.333389 97.846287 
L 92.428044 96.994685 
L 91.54002 96.145061 
L 90.669318 95.297416 
L 89.815935 94.451749 
L 88.979874 93.60806 
L 88.161134 92.766349 
L 87.359714 91.926616 
L 86.575615 91.088862 
L 85.808837 90.253085 
L 85.059379 89.419287 
L 84.327243 88.587467 
L 83.612427 87.757625 
L 82.914932 86.929761 
L 82.234758 86.103876 
L 81.571904 85.279968 
L 80.926372 84.458039 
L 80.29816 83.638088 
L 79.687269 82.820115 
L 79.093698 82.00412 
L 78.517449 81.190104 
L 77.95852 80.378065 
L 77.416912 79.568005 
L 76.892625 78.759923 
L 76.385659 77.953819 
L 75.896014 77.149694 
L 75.423689 76.347546 
L 74.968685 75.547377 
L 74.531002 74.749186 
L 74.11064 73.952972 
L 73.707598 73.158738 
L 73.321877 72.366481 
L 72.953477 71.576202 
L 72.602398 70.787902 
L 72.26864 70.00158 
L 71.952202 69.217236 
L 71.653086 68.43487 
L 71.37129 67.654482 
L 71.106814 66.876073 
L 70.85966 66.099642 
L 70.629826 65.325188 
L 70.417314 64.552713 
L 70.222122 63.782217 
L 70.04425 63.013698 
L 69.8837 62.247157 
L 69.74047 61.482595 
L 69.614562 60.720011 
L 69.505973 59.959405 
L 69.414706 59.200777 
L 69.34076 58.444127 
L 69.284134 57.689456 
L 69.244829 56.936763 
L 69.222845 56.186048 
L 69.218182 55.437311 
L 69.230839 54.690552 
L 69.260818 53.945771 
L 69.308117 53.202969 
L 69.372737 52.462144 
L 69.454677 51.723298 
L 69.553939 50.98643 
L 69.670521 50.251541 
L 69.804424 49.518629 
L 69.955648 48.787695 
L 70.124193 48.05874 
L 70.310058 47.331763 
L 70.513244 46.606764 
L 70.733751 45.883743 
L 70.971579 45.162701 
L 71.226728 44.443636 
" clip-path="url(#p17c872fcd4)" style="fill: none; stroke: #000000; stroke-width: 2.5; stroke-linecap: square"/>
   </g>
   <g id="line2d_19">
    <path d="M 71.226728 44.443636 
L 71.887582 44.708711 
L 72.551102 44.981698 
L 73.217286 45.262598 
L 73.886135 45.551411 
L 74.557649 45.848136 
L 75.231828 46.152774 
L 75.908671 46.465325 
L 76.588179 46.785788 
L 77.270352 47.114165 
L 77.955189 47.450453 
L 78.642692 47.794655 
L 79.332859 48.146769 
L 80.02569 48.506796 
L 80.721187 48.874735 
L 81.419348 49.250587 
L 82.120174 49.634352 
L 82.823665 50.026029 
L 83.52982 50.425619 
L 84.23864 50.833122 
L 84.950125 51.248538 
L 85.664275 51.671866 
L 86.381089 52.103107 
L 87.100568 52.54226 
L 87.822712 52.989326 
L 88.54752 53.444305 
L 89.274994 53.907197 
L 90.005132 54.378001 
L 90.737935 54.856718 
L 91.473402 55.343348 
L 92.211534 55.83789 
L 92.952331 56.340345 
L 93.695793 56.850712 
L 94.441919 57.368993 
L 95.190711 57.895186 
L 95.942167 58.429291 
L 96.696287 58.97131 
L 97.453073 59.521241 
L 98.212523 60.079084 
L 98.974638 60.644841 
L 99.739417 61.21851 
L 100.506862 61.800091 
L 101.276971 62.389586 
L 102.049745 62.986993 
L 102.825183 63.592312 
L 103.603287 64.205545 
L 104.384055 64.82669 
L 105.167487 65.455748 
L 105.953585 66.092718 
L 106.742347 66.737601 
L 107.533774 67.390397 
L 108.327866 68.051105 
L 109.124622 68.719726 
L 109.924044 69.39626 
L 110.726129 70.080707 
L 111.53088 70.773066 
L 112.338296 71.473338 
L 113.148376 72.181522 
L 113.961121 72.897619 
L 114.77653 73.621629 
L 115.594605 74.353552 
L 116.415344 75.093387 
L 117.238748 75.841135 
L 118.064816 76.596795 
L 118.893549 77.360369 
L 119.724948 78.131855 
L 120.55901 78.911253 
L 121.395738 79.698564 
L 122.23513 80.493788 
L 123.077187 81.296925 
L 123.921909 82.107974 
L 124.769295 82.926936 
L 125.619347 83.753811 
L 126.472063 84.588598 
L 127.327443 85.431298 
L 128.185489 86.281911 
L 129.046199 87.140436 
L 129.909574 88.006874 
L 130.775613 88.881225 
L 131.644318 89.763488 
L 132.515687 90.653664 
L 133.389721 91.551753 
L 134.266419 92.457754 
L 135.145783 93.371669 
L 136.027811 94.293495 
L 136.912503 95.223235 
L 137.799861 96.160887 
L 138.689883 97.106452 
L 139.58257 98.059929 
L 140.477922 99.021319 
L 141.375939 99.990622 
L 142.27662 100.967838 
L 143.179966 101.952966 
L 144.085976 102.946007 
L 144.994652 103.94696 
L 145.905992 104.955826 
L 146.819997 105.972605 
L 147.736667 106.997297 
L 148.656001 108.029901 
L 149.578 109.070418 
" clip-path="url(#p17c872fcd4)" style="fill: none; stroke: #000000; stroke-width: 2.5; stroke-linecap: square"/>
   </g>
   <g id="line2d_20">
    <path d="M 97.343818 59.954064 
L 96.951836 60.164805 
L 96.567314 60.379238 
L 96.190254 60.597364 
L 95.820655 60.819183 
L 95.458517 61.044694 
L 95.10384 61.273898 
L 94.756625 61.506795 
L 94.416871 61.743384 
L 94.084578 61.983665 
L 93.759747 62.227639 
L 93.442376 62.475306 
L 93.132468 62.726666 
L 92.83002 62.981718 
L 92.535033 63.240462 
L 92.247508 63.502899 
L 91.967444 63.769029 
L 91.694842 64.038851 
L 91.4297 64.312366 
L 91.17202 64.589573 
L 90.921801 64.870473 
L 90.679044 65.155066 
L 90.443748 65.443351 
L 90.215912 65.735329 
L 89.995539 66.030999 
L 89.782626 66.330362 
L 89.577175 66.633417 
L 89.379185 66.940166 
L 89.188656 67.250606 
L 89.005589 67.564739 
L 88.829983 67.882565 
L 88.661838 68.204084 
L 88.501154 68.529295 
L 88.347932 68.858198 
L 88.20217 69.190794 
L 88.063871 69.527083 
L 87.933032 69.867064 
L 87.809655 70.210738 
L 87.693739 70.558105 
L 87.585284 70.909164 
L 87.48429 71.263915 
L 87.390758 71.62236 
L 87.304687 71.984497 
L 87.226077 72.350326 
L 87.154929 72.719848 
L 87.091241 73.093062 
L 87.035016 73.46997 
L 86.986251 73.850569 
L 86.944947 74.234862 
L 86.911105 74.622846 
L 86.884724 75.014524 
L 86.865805 75.409894 
L 86.854346 75.808957 
L 86.850349 76.211712 
L 86.853813 76.61816 
L 86.864739 77.0283 
L 86.883125 77.442133 
L 86.908973 77.859658 
L 86.942283 78.280877 
L 86.983053 78.705787 
L 87.031285 79.134391 
L 87.086978 79.566686 
L 87.150132 80.002675 
L 87.220748 80.442356 
L 87.298825 80.88573 
L 87.384363 81.332796 
L 87.477362 81.783555 
L 87.577823 82.238006 
L 87.685744 82.69615 
L 87.801127 83.157986 
L 87.923972 83.623515 
L 88.054278 84.092737 
L 88.192044 84.565651 
L 88.337273 85.042258 
L 88.489962 85.522558 
L 88.650113 86.00655 
L 88.817725 86.494234 
L 88.992798 86.985611 
L 89.175333 87.480681 
L 89.365328 87.979444 
L 89.562785 88.481899 
L 89.767704 88.988046 
L 89.980083 89.497886 
L 90.199924 90.011419 
L 90.427226 90.528644 
L 90.66199 91.049562 
L 90.904214 91.574172 
L 91.1539 92.102475 
L 91.411047 92.634471 
L 91.675656 93.170159 
L 91.947725 93.70954 
L 92.227256 94.252613 
L 92.514248 94.799379 
L 92.808702 95.349838 
L 93.110617 95.903989 
L 93.419993 96.461832 
L 93.73683 97.023369 
L 94.061129 97.588597 
L 94.392888 98.157519 
L 94.732109 98.730133 
" clip-path="url(#p17c872fcd4)" style="fill: none; stroke: #000000; stroke-width: 2.5; stroke-linecap: square"/>
   </g>
   <g id="line2d_21">
    <path d="M 312.809818 125.227113 
L 314.252107 124.314188 
L 315.677075 123.403241 
L 317.084723 122.494273 
L 318.47505 121.587282 
L 319.848056 120.68227 
L 321.203741 119.779236 
L 322.542105 118.87818 
L 323.863149 117.979102 
L 325.166871 117.082002 
L 326.453273 116.186881 
L 327.722354 115.293737 
L 328.974115 114.402572 
L 330.208554 113.513385 
L 331.425673 112.626177 
L 332.625471 111.740946 
L 333.807948 110.857693 
L 334.973105 109.976419 
L 336.12094 109.097123 
L 337.251455 108.219805 
L 338.364649 107.344465 
L 339.460522 106.471104 
L 340.539075 105.59972 
L 341.600307 104.730315 
L 342.644217 103.862888 
L 343.670808 102.997439 
L 344.680077 102.133968 
L 345.672025 101.272476 
L 346.646653 100.412961 
L 347.60396 99.555425 
L 348.543946 98.699867 
L 349.466611 97.846287 
L 350.371956 96.994685 
L 351.25998 96.145061 
L 352.130682 95.297416 
L 352.984065 94.451749 
L 353.820126 93.60806 
L 354.638866 92.766349 
L 355.440286 91.926616 
L 356.224385 91.088862 
L 356.991163 90.253085 
L 357.740621 89.419287 
L 358.472757 88.587467 
L 359.187573 87.757625 
L 359.885068 86.929761 
L 360.565242 86.103876 
L 361.228096 85.279968 
L 361.873628 84.458039 
L 362.50184 83.638088 
L 363.112731 82.820115 
L 363.706302 82.00412 
L 364.282551 81.190104 
L 364.84148 80.378065 
L 365.383088 79.568005 
L 365.907375 78.759923 
L 366.414341 77.953819 
L 366.903986 77.149694 
L 367.376311 76.347546 
L 367.831315 75.547377 
L 368.268998 74.749186 
L 368.68936 73.952972 
L 369.092402 73.158738 
L 369.478123 72.366481 
L 369.846523 71.576202 
L 370.197602 70.787902 
L 370.53136 70.00158 
L 370.847798 69.217236 
L 371.146914 68.43487 
L 371.42871 67.654482 
L 371.693186 66.876073 
L 371.94034 66.099642 
L 372.170174 65.325188 
L 372.382686 64.552713 
L 372.577878 63.782217 
L 372.75575 63.013698 
L 372.9163 62.247157 
L 373.05953 61.482595 
L 373.185438 60.720011 
L 373.294027 59.959405 
L 373.385294 59.200777 
L 373.45924 58.444127 
L 373.515866 57.689456 
L 373.555171 56.936763 
L 373.577155 56.186048 
L 373.581818 55.437311 
L 373.569161 54.690552 
L 373.539182 53.945771 
L 373.491883 53.202969 
L 373.427263 52.462144 
L 373.345323 51.723298 
L 373.246061 50.98643 
L 373.129479 50.251541 
L 372.995576 49.518629 
L 372.844352 48.787695 
L 372.675807 48.05874 
L 372.489942 47.331763 
L 372.286756 46.606764 
L 372.066249 45.883743 
L 371.828421 45.162701 
L 371.573272 44.443636 
" clip-path="url(#p17c872fcd4)" style="fill: none; stroke: #000000; stroke-width: 2.5; stroke-linecap: square"/>
   </g>
   <g id="line2d_22">
    <path d="M 371.573272 44.443636 
L 370.912418 44.708711 
L 370.248898 44.981698 
L 369.582714 45.262598 
L 368.913865 45.551411 
L 368.242351 45.848136 
L 367.568172 46.152774 
L 366.891329 46.465325 
L 366.211821 46.785788 
L 365.529648 47.114165 
L 364.844811 47.450453 
L 364.157308 47.794655 
L 363.467141 48.146769 
L 362.77431 48.506796 
L 362.078813 48.874735 
L 361.380652 49.250587 
L 360.679826 49.634352 
L 359.976335 50.026029 
L 359.27018 50.425619 
L 358.56136 50.833122 
L 357.849875 51.248538 
L 357.135725 51.671866 
L 356.418911 52.103107 
L 355.699432 52.54226 
L 354.977288 52.989326 
L 354.25248 53.444305 
L 353.525006 53.907197 
L 352.794868 54.378001 
L 352.062065 54.856718 
L 351.326598 55.343348 
L 350.588466 55.83789 
L 349.847669 56.340345 
L 349.104207 56.850712 
L 348.358081 57.368993 
L 347.609289 57.895186 
L 346.857833 58.429291 
L 346.103713 58.97131 
L 345.346927 59.521241 
L 344.587477 60.079084 
L 343.825362 60.644841 
L 343.060583 61.21851 
L 342.293138 61.800091 
L 341.523029 62.389586 
L 340.750255 62.986993 
L 339.974817 63.592312 
L 339.196713 64.205545 
L 338.415945 64.82669 
L 337.632513 65.455748 
L 336.846415 66.092718 
L 336.057653 66.737601 
L 335.266226 67.390397 
L 334.472134 68.051105 
L 333.675378 68.719726 
L 332.875956 69.39626 
L 332.073871 70.080707 
L 331.26912 70.773066 
L 330.461704 71.473338 
L 329.651624 72.181522 
L 328.838879 72.897619 
L 328.02347 73.621629 
L 327.205395 74.353552 
L 326.384656 75.093387 
L 325.561252 75.841135 
L 324.735184 76.596795 
L 323.906451 77.360369 
L 323.075052 78.131855 
L 322.24099 78.911253 
L 321.404262 79.698564 
L 320.56487 80.493788 
L 319.722813 81.296925 
L 318.878091 82.107974 
L 318.030705 82.926936 
L 317.180653 83.753811 
L 316.327937 84.588598 
L 315.472557 85.431298 
L 314.614511 86.281911 
L 313.753801 87.140436 
L 312.890426 88.006874 
L 312.024387 88.881225 
L 311.155682 89.763488 
L 310.284313 90.653664 
L 309.410279 91.551753 
L 308.533581 92.457754 
L 307.654217 93.371669 
L 306.772189 94.293495 
L 305.887497 95.223235 
L 305.000139 96.160887 
L 304.110117 97.106452 
L 303.21743 98.059929 
L 302.322078 99.021319 
L 301.424061 99.990622 
L 300.52338 100.967838 
L 299.620034 101.952966 
L 298.714024 102.946007 
L 297.805348 103.94696 
L 296.894008 104.955826 
L 295.980003 105.972605 
L 295.063333 106.997297 
L 294.143999 108.029901 
L 293.222 109.070418 
" clip-path="url(#p17c872fcd4)" style="fill: none; stroke: #000000; stroke-width: 2.5; stroke-linecap: square"/>
   </g>
   <g id="line2d_23">
    <path d="M 345.456182 59.954064 
L 345.848164 60.164805 
L 346.232686 60.379238 
L 346.609746 60.597364 
L 346.979345 60.819183 
L 347.341483 61.044694 
L 347.69616 61.273898 
L 348.043375 61.506795 
L 348.383129 61.743384 
L 348.715422 61.983665 
L 349.040253 62.227639 
L 349.357624 62.475306 
L 349.667532 62.726666 
L 349.96998 62.981718 
L 350.264967 63.240462 
L 350.552492 63.502899 
L 350.832556 63.769029 
L 351.105158 64.038851 
L 351.3703 64.312366 
L 351.62798 64.589573 
L 351.878199 64.870473 
L 352.120956 65.155066 
L 352.356252 65.443351 
L 352.584088 65.735329 
L 352.804461 66.030999 
L 353.017374 66.330362 
L 353.222825 66.633417 
L 353.420815 66.940166 
L 353.611344 67.250606 
L 353.794411 67.564739 
L 353.970017 67.882565 
L 354.138162 68.204084 
L 354.298846 68.529295 
L 354.452068 68.858198 
L 354.59783 69.190794 
L 354.736129 69.527083 
L 354.866968 69.867064 
L 354.990345 70.210738 
L 355.106261 70.558105 
L 355.214716 70.909164 
L 355.31571 71.263915 
L 355.409242 71.62236 
L 355.495313 71.984497 
L 355.573923 72.350326 
L 355.645071 72.719848 
L 355.708759 73.093062 
L 355.764984 73.46997 
L 355.813749 73.850569 
L 355.855053 74.234862 
L 355.888895 74.622846 
L 355.915276 75.014524 
L 355.934195 75.409894 
L 355.945654 75.808957 
L 355.949651 76.211712 
L 355.946187 76.61816 
L 355.935261 77.0283 
L 355.916875 77.442133 
L 355.891027 77.859658 
L 355.857717 78.280877 
L 355.816947 78.705787 
L 355.768715 79.134391 
L 355.713022 79.566686 
L 355.649868 80.002675 
L 355.579252 80.442356 
L 355.501175 80.88573 
L 355.415637 81.332796 
L 355.322638 81.783555 
L 355.222177 82.238006 
L 355.114256 82.69615 
L 354.998873 83.157986 
L 354.876028 83.623515 
L 354.745722 84.092737 
L 354.607956 84.565651 
L 354.462727 85.042258 
L 354.310038 85.522558 
L 354.149887 86.00655 
L 353.982275 86.494234 
L 353.807202 86.985611 
L 353.624667 87.480681 
L 353.434672 87.979444 
L 353.237215 88.481899 
L 353.032296 88.988046 
L 352.819917 89.497886 
L 352.600076 90.011419 
L 352.372774 90.528644 
L 352.13801 91.049562 
L 351.895786 91.574172 
L 351.6461 92.102475 
L 351.388953 92.634471 
L 351.124344 93.170159 
L 350.852275 93.70954 
L 350.572744 94.252613 
L 350.285752 94.799379 
L 349.991298 95.349838 
L 349.689383 95.903989 
L 349.380007 96.461832 
L 349.06317 97.023369 
L 348.738871 97.588597 
L 348.407112 98.157519 
L 348.067891 98.730133 
" clip-path="url(#p17c872fcd4)" style="fill: none; stroke: #000000; stroke-width: 2.5; stroke-linecap: square"/>
   </g>
   <g id="line2d_24">
    <path d="M 146.966291 105.192811 
L 148.470002 104.624153 
L 149.973714 104.067101 
L 151.477425 103.521654 
L 152.981136 102.987812 
L 154.484848 102.465575 
L 155.988559 101.954944 
L 157.49227 101.455918 
L 158.995981 100.968497 
L 160.499693 100.492681 
L 162.003404 100.028471 
L 163.507115 99.575866 
L 165.010827 99.134866 
L 166.514538 98.705472 
L 168.018249 98.287682 
L 169.52196 97.881498 
L 171.025672 97.486919 
L 172.529383 97.103946 
L 174.033094 96.732578 
L 175.536806 96.372815 
L 177.040517 96.024657 
L 178.544228 95.688104 
L 180.047939 95.363157 
L 181.551651 95.049815 
L 183.055362 94.748079 
L 184.559073 94.457947 
L 186.062785 94.179421 
L 187.566496 93.9125 
L 189.070207 93.657184 
L 190.573919 93.413474 
L 192.07763 93.181369 
L 193.581341 92.960869 
L 195.085052 92.751974 
L 196.588764 92.554685 
L 198.092475 92.369001 
L 199.596186 92.194922 
L 201.099898 92.032448 
L 202.603609 91.88158 
L 204.10732 91.742317 
L 205.611031 91.614659 
L 207.114743 91.498606 
L 208.618454 91.394159 
L 210.122165 91.301317 
L 211.625877 91.22008 
L 213.129588 91.150449 
L 214.633299 91.092422 
L 216.13701 91.046001 
L 217.640722 91.011185 
L 219.144433 90.987975 
L 220.648144 90.97637 
L 222.151856 90.97637 
L 223.655567 90.987975 
L 225.159278 91.011185 
L 226.66299 91.046001 
L 228.166701 91.092422 
L 229.670412 91.150449 
L 231.174123 91.22008 
L 232.677835 91.301317 
L 234.181546 91.394159 
L 235.685257 91.498606 
L 237.188969 91.614659 
L 238.69268 91.742317 
L 240.196391 91.88158 
L 241.700102 92.032448 
L 243.203814 92.194922 
L 244.707525 92.369001 
L 246.211236 92.554685 
L 247.714948 92.751974 
L 249.218659 92.960869 
L 250.72237 93.181369 
L 252.226081 93.413474 
L 253.729793 93.657184 
L 255.233504 93.9125 
L 256.737215 94.179421 
L 258.240927 94.457947 
L 259.744638 94.748079 
L 261.248349 95.049815 
L 262.752061 95.363157 
L 264.255772 95.688104 
L 265.759483 96.024657 
L 267.263194 96.372815 
L 268.766906 96.732578 
L 270.270617 97.103946 
L 271.774328 97.486919 
L 273.27804 97.881498 
L 274.781751 98.287682 
L 276.285462 98.705472 
L 277.789173 99.134866 
L 279.292885 99.575866 
L 280.796596 100.028471 
L 282.300307 100.492681 
L 283.804019 100.968497 
L 285.30773 101.455918 
L 286.811441 101.954944 
L 288.315152 102.465575 
L 289.818864 102.987812 
L 291.322575 103.521654 
L 292.826286 104.067101 
L 294.329998 104.624153 
L 295.833709 105.192811 
" clip-path="url(#p17c872fcd4)" style="fill: none; stroke: #000000; stroke-width: 2.5; stroke-linecap: square"/>
   </g>
   <g id="line2d_25">
    <path d="M 103.873091 186.622555 
L 104.629032 185.333027 
L 105.418285 184.076555 
L 106.239004 182.854498 
L 107.08936 181.668155 
L 107.967546 180.518774 
L 108.871768 179.407546 
L 109.800256 178.335609 
L 110.751253 177.304043 
L 111.723024 176.313875 
L 112.713851 175.366079 
L 113.722033 174.46157 
L 114.745889 173.601212 
L 115.783756 172.785811 
L 116.833989 172.016119 
L 117.894961 171.292836 
L 118.965064 170.616602 
L 120.042707 169.988006 
L 121.126319 169.407581 
L 122.214345 168.875804 
L 123.305251 168.393099 
L 124.397519 167.959833 
L 125.489651 167.576321 
L 126.580166 167.24282 
L 127.667601 166.959534 
L 128.750513 166.726611 
L 129.827476 166.544145 
L 130.897082 166.412175 
L 131.957943 166.330684 
L 133.008686 166.299602 
L 134.04796 166.318803 
L 135.074431 166.388106 
L 136.086781 166.507274 
L 137.083713 166.676018 
L 138.063948 166.893992 
L 139.026223 167.160795 
L 139.969297 167.475972 
L 140.891945 167.839013 
L 141.792959 168.249353 
L 142.671152 168.706371 
L 143.525353 169.209394 
L 144.354411 169.75769 
L 145.157193 170.350475 
L 145.932583 170.98691 
L 146.679485 171.6661 
L 147.396819 172.387095 
L 148.083526 173.148892 
L 148.738563 173.950431 
L 149.360907 174.790598 
L 149.949551 175.668224 
L 150.50351 176.582085 
L 151.021813 177.530902 
L 151.503511 178.513341 
L 151.94767 179.528014 
L 152.353376 180.573478 
L 152.719734 181.648234 
L 153.045865 182.750728 
L 153.330912 183.879353 
L 153.574031 185.032445 
L 153.774401 186.208286 
L 153.931218 187.405104 
L 154.043693 188.62107 
L 154.111061 189.854302 
L 154.13257 191.102863 
L 154.10749 192.364759 
L 154.035107 193.637944 
L 153.914727 194.920315 
L 153.745672 196.209715 
L 153.527285 197.503931 
L 153.258924 198.800698 
L 152.939969 200.097692 
L 152.569815 201.392538 
L 152.147878 202.682803 
L 151.673591 203.966001 
L 151.146403 205.23959 
L 150.565786 206.500974 
L 149.931227 207.747502 
L 149.242232 208.976468 
L 148.498325 210.18511 
L 147.699048 211.370612 
L 146.843963 212.530104 
L 145.932649 213.66066 
L 144.964703 214.759299 
L 143.939741 215.822985 
L 142.857397 216.848629 
L 141.717323 217.833084 
L 140.519189 218.773151 
L 139.262684 219.665574 
L 137.947515 220.507044 
L 136.573408 221.294194 
L 135.140106 222.023606 
L 133.647371 222.691805 
L 132.094983 223.295261 
L 130.48274 223.830389 
L 128.810459 224.29355 
L 127.077975 224.681049 
L 125.285141 224.989138 
L 123.431829 225.214012 
L 121.517928 225.351812 
L 119.543346 225.398624 
" clip-path="url(#p17c872fcd4)" style="fill: none; stroke: #000000; stroke-width: 2.5; stroke-linecap: square"/>
   </g>
   <g id="line2d_26">
    <path d="M 338.926909 186.622555 
L 338.170968 185.333027 
L 337.381715 184.076555 
L 336.560996 182.854498 
L 335.71064 181.668155 
L 334.832454 180.518774 
L 333.928232 179.407546 
L 332.999744 178.335609 
L 332.048747 177.304043 
L 331.076976 176.313875 
L 330.086149 175.366079 
L 329.077967 174.46157 
L 328.054111 173.601212 
L 327.016244 172.785811 
L 325.966011 172.016119 
L 324.905039 171.292836 
L 323.834936 170.616602 
L 322.757293 169.988006 
L 321.673681 169.407581 
L 320.585655 168.875804 
L 319.494749 168.393099 
L 318.402481 167.959833 
L 317.310349 167.576321 
L 316.219834 167.24282 
L 315.132399 166.959534 
L 314.049487 166.726611 
L 312.972524 166.544145 
L 311.902918 166.412175 
L 310.842057 166.330684 
L 309.791314 166.299602 
L 308.75204 166.318803 
L 307.725569 166.388106 
L 306.713219 166.507274 
L 305.716287 166.676018 
L 304.736052 166.893992 
L 303.773777 167.160795 
L 302.830703 167.475972 
L 301.908055 167.839013 
L 301.007041 168.249353 
L 300.128848 168.706371 
L 299.274647 169.209394 
L 298.445589 169.75769 
L 297.642807 170.350475 
L 296.867417 170.98691 
L 296.120515 171.6661 
L 295.403181 172.387095 
L 294.716474 173.148892 
L 294.061437 173.950431 
L 293.439093 174.790598 
L 292.850449 175.668224 
L 292.29649 176.582085 
L 291.778187 177.530902 
L 291.296489 178.513341 
L 290.85233 179.528014 
L 290.446624 180.573478 
L 290.080266 181.648234 
L 289.754135 182.750728 
L 289.469088 183.879353 
L 289.225969 185.032445 
L 289.025599 186.208286 
L 288.868782 187.405104 
L 288.756307 188.62107 
L 288.688939 189.854302 
L 288.66743 191.102863 
L 288.69251 192.364759 
L 288.764893 193.637944 
L 288.885273 194.920315 
L 289.054328 196.209715 
L 289.272715 197.503931 
L 289.541076 198.800698 
L 289.860031 200.097692 
L 290.230185 201.392538 
L 290.652122 202.682803 
L 291.126409 203.966001 
L 291.653597 205.23959 
L 292.234214 206.500974 
L 292.868773 207.747502 
L 293.557768 208.976468 
L 294.301675 210.18511 
L 295.100952 211.370612 
L 295.956037 212.530104 
L 296.867351 213.66066 
L 297.835297 214.759299 
L 298.860259 215.822985 
L 299.942603 216.848629 
L 301.082677 217.833084 
L 302.280811 218.773151 
L 303.537316 219.665574 
L 304.852485 220.507044 
L 306.226592 221.294194 
L 307.659894 222.023606 
L 309.152629 222.691805 
L 310.705017 223.295261 
L 312.31726 223.830389 
L 313.989541 224.29355 
L 315.722025 224.681049 
L 317.514859 224.989138 
L 319.368171 225.214012 
L 321.282072 225.351812 
L 323.256654 225.398624 
" clip-path="url(#p17c872fcd4)" style="fill: none; stroke: #000000; stroke-width: 2.5; stroke-linecap: square"/>
   </g>
   <g id="line2d_27">
    <path d="M 216.176582 173.697199 
L 216.282105 173.619655 
L 216.387629 173.543693 
L 216.493153 173.469314 
L 216.598676 173.396517 
L 216.7042 173.325303 
L 216.809723 173.255672 
L 216.915247 173.187623 
L 217.020771 173.121156 
L 217.126294 173.056272 
L 217.231818 172.992971 
L 217.337341 172.931252 
L 217.442865 172.871116 
L 217.548389 172.812562 
L 217.653912 172.755591 
L 217.759436 172.700202 
L 217.864959 172.646396 
L 217.970483 172.594172 
L 218.076007 172.543531 
L 218.18153 172.494472 
L 218.287054 172.446996 
L 218.392577 172.401103 
L 218.498101 172.356792 
L 218.603625 172.314063 
L 218.709148 172.272917 
L 218.814672 172.233354 
L 218.920195 172.195373 
L 219.025719 172.158975 
L 219.131243 172.124159 
L 219.236766 172.090926 
L 219.34229 172.059275 
L 219.447813 172.029207 
L 219.553337 172.000721 
L 219.658861 171.973818 
L 219.764384 171.948498 
L 219.869908 171.92476 
L 219.975431 171.902604 
L 220.080955 171.882031 
L 220.186479 171.863041 
L 220.292002 171.845633 
L 220.397526 171.829808 
L 220.503049 171.815565 
L 220.608573 171.802905 
L 220.714097 171.791827 
L 220.81962 171.782332 
L 220.925144 171.774419 
L 221.030667 171.768089 
L 221.136191 171.763341 
L 221.241715 171.760176 
L 221.347238 171.758594 
L 221.452762 171.758594 
L 221.558285 171.760176 
L 221.663809 171.763341 
L 221.769333 171.768089 
L 221.874856 171.774419 
L 221.98038 171.782332 
L 222.085903 171.791827 
L 222.191427 171.802905 
L 222.296951 171.815565 
L 222.402474 171.829808 
L 222.507998 171.845633 
L 222.613521 171.863041 
L 222.719045 171.882031 
L 222.824569 171.902604 
L 222.930092 171.92476 
L 223.035616 171.948498 
L 223.141139 171.973818 
L 223.246663 172.000721 
L 223.352187 172.029207 
L 223.45771 172.059275 
L 223.563234 172.090926 
L 223.668757 172.124159 
L 223.774281 172.158975 
L 223.879805 172.195373 
L 223.985328 172.233354 
L 224.090852 172.272917 
L 224.196375 172.314063 
L 224.301899 172.356792 
L 224.407423 172.401103 
L 224.512946 172.446996 
L 224.61847 172.494472 
L 224.723993 172.543531 
L 224.829517 172.594172 
L 224.935041 172.646396 
L 225.040564 172.700202 
L 225.146088 172.755591 
L 225.251611 172.812562 
L 225.357135 172.871116 
L 225.462659 172.931252 
L 225.568182 172.992971 
L 225.673706 173.056272 
L 225.779229 173.121156 
L 225.884753 173.187623 
L 225.990277 173.255672 
L 226.0958 173.325303 
L 226.201324 173.396517 
L 226.306847 173.469314 
L 226.412371 173.543693 
L 226.517895 173.619655 
L 226.623418 173.697199 
" clip-path="url(#p17c872fcd4)" style="fill: none; stroke: #000000; stroke-width: 1.5; stroke-linecap: square"/>
   </g>
   <g id="line2d_28">
    <path d="M 226.623418 173.697199 
L 226.622885 173.749357 
L 226.621286 173.801383 
L 226.618622 173.853277 
L 226.614891 173.905039 
L 226.610094 173.956669 
L 226.604232 174.008167 
L 226.597304 174.059534 
L 226.58931 174.110768 
L 226.580249 174.161871 
L 226.570123 174.212842 
L 226.558932 174.263681 
L 226.546674 174.314388 
L 226.53335 174.364963 
L 226.51896 174.415406 
L 226.503505 174.465718 
L 226.486984 174.515897 
L 226.469396 174.565945 
L 226.450743 174.615861 
L 226.431024 174.665645 
L 226.410239 174.715297 
L 226.388388 174.764817 
L 226.365472 174.814205 
L 226.341489 174.863462 
L 226.31644 174.912586 
L 226.290326 174.961579 
L 226.263146 175.01044 
L 226.234899 175.059169 
L 226.205587 175.107766 
L 226.175209 175.156231 
L 226.143765 175.204564 
L 226.111256 175.252765 
L 226.07768 175.300835 
L 226.043038 175.348772 
L 226.007331 175.396578 
L 225.970558 175.444252 
L 225.932718 175.491794 
L 225.893813 175.539204 
L 225.853842 175.586482 
L 225.812805 175.633629 
L 225.770702 175.680643 
L 225.727533 175.727526 
L 225.683299 175.774277 
L 225.637998 175.820895 
L 225.591632 175.867382 
L 225.5442 175.913738 
L 225.495701 175.959961 
L 225.446137 176.006052 
L 225.395507 176.052012 
L 225.343811 176.097839 
L 225.291049 176.143535 
L 225.237222 176.189099 
L 225.182328 176.234531 
L 225.126369 176.279831 
L 225.069343 176.324999 
L 225.011252 176.370035 
L 224.952095 176.41494 
L 224.891872 176.459712 
L 224.830583 176.504353 
L 224.768228 176.548862 
L 224.704807 176.593239 
L 224.640321 176.637484 
L 224.574768 176.681597 
L 224.50815 176.725578 
L 224.440465 176.769428 
L 224.371715 176.813145 
L 224.301899 176.856731 
L 224.231017 176.900184 
L 224.159069 176.943506 
L 224.086055 176.986696 
L 224.011976 177.029755 
L 223.93683 177.072681 
L 223.860618 177.115475 
L 223.783341 177.158138 
L 223.704998 177.200668 
L 223.625589 177.243067 
L 223.545114 177.285334 
L 223.463573 177.327469 
L 223.380966 177.369472 
L 223.297293 177.411343 
L 223.212554 177.453083 
L 223.12675 177.49469 
L 223.039879 177.536166 
L 222.951943 177.57751 
L 222.862941 177.618721 
L 222.772873 177.659801 
L 222.681739 177.700749 
L 222.589539 177.741566 
L 222.496273 177.78225 
L 222.401941 177.822803 
L 222.306544 177.863223 
L 222.21008 177.903512 
L 222.112551 177.943669 
L 222.013955 177.983694 
L 221.914294 178.023587 
L 221.813567 178.063348 
L 221.711774 178.102977 
L 221.608915 178.142475 
L 221.504991 178.18184 
L 221.4 178.221074 
" clip-path="url(#p17c872fcd4)" style="fill: none; stroke: #000000; stroke-width: 1.5; stroke-linecap: square"/>
   </g>
   <g id="line2d_29">
    <path d="M 221.4 178.221074 
L 221.295009 178.18184 
L 221.191085 178.142475 
L 221.088226 178.102977 
L 220.986433 178.063348 
L 220.885706 178.023587 
L 220.786045 177.983694 
L 220.687449 177.943669 
L 220.58992 177.903512 
L 220.493456 177.863223 
L 220.398059 177.822803 
L 220.303727 177.78225 
L 220.210461 177.741566 
L 220.118261 177.700749 
L 220.027127 177.659801 
L 219.937059 177.618721 
L 219.848057 177.57751 
L 219.760121 177.536166 
L 219.67325 177.49469 
L 219.587446 177.453083 
L 219.502707 177.411343 
L 219.419034 177.369472 
L 219.336427 177.327469 
L 219.254886 177.285334 
L 219.174411 177.243067 
L 219.095002 177.200668 
L 219.016659 177.158138 
L 218.939382 177.115475 
L 218.86317 177.072681 
L 218.788024 177.029755 
L 218.713945 176.986696 
L 218.640931 176.943506 
L 218.568983 176.900184 
L 218.498101 176.856731 
L 218.428285 176.813145 
L 218.359535 176.769428 
L 218.29185 176.725578 
L 218.225232 176.681597 
L 218.159679 176.637484 
L 218.095193 176.593239 
L 218.031772 176.548862 
L 217.969417 176.504353 
L 217.908128 176.459712 
L 217.847905 176.41494 
L 217.788748 176.370035 
L 217.730657 176.324999 
L 217.673631 176.279831 
L 217.617672 176.234531 
L 217.562778 176.189099 
L 217.508951 176.143535 
L 217.456189 176.097839 
L 217.404493 176.052012 
L 217.353863 176.006052 
L 217.304299 175.959961 
L 217.2558 175.913738 
L 217.208368 175.867382 
L 217.162002 175.820895 
L 217.116701 175.774277 
L 217.072467 175.727526 
L 217.029298 175.680643 
L 216.987195 175.633629 
L 216.946158 175.586482 
L 216.906187 175.539204 
L 216.867282 175.491794 
L 216.829442 175.444252 
L 216.792669 175.396578 
L 216.756962 175.348772 
L 216.72232 175.300835 
L 216.688744 175.252765 
L 216.656235 175.204564 
L 216.624791 175.156231 
L 216.594413 175.107766 
L 216.565101 175.059169 
L 216.536854 175.01044 
L 216.509674 174.961579 
L 216.48356 174.912586 
L 216.458511 174.863462 
L 216.434528 174.814205 
L 216.411612 174.764817 
L 216.389761 174.715297 
L 216.368976 174.665645 
L 216.349257 174.615861 
L 216.330604 174.565945 
L 216.313016 174.515897 
L 216.296495 174.465718 
L 216.28104 174.415406 
L 216.26665 174.364963 
L 216.253326 174.314388 
L 216.241068 174.263681 
L 216.229877 174.212842 
L 216.219751 174.161871 
L 216.21069 174.110768 
L 216.202696 174.059534 
L 216.195768 174.008167 
L 216.189906 173.956669 
L 216.185109 173.905039 
L 216.181378 173.853277 
L 216.178714 173.801383 
L 216.177115 173.749357 
L 216.176582 173.697199 
" clip-path="url(#p17c872fcd4)" style="fill: none; stroke: #000000; stroke-width: 1.5; stroke-linecap: square"/>
   </g>
   <g id="line2d_30">
    <path d="M 195.282909 200.840447 
L 195.546718 201.310444 
L 195.810527 201.780345 
L 196.074336 202.250055 
L 196.338145 202.719476 
L 196.601954 203.188514 
L 196.865763 203.657072 
L 197.129572 204.125055 
L 197.393381 204.592367 
L 197.65719 205.058911 
L 197.920999 205.524592 
L 198.184808 205.989314 
L 198.448617 206.45298 
L 198.712426 206.915496 
L 198.976235 207.376765 
L 199.240044 207.836692 
L 199.503853 208.295179 
L 199.767662 208.752132 
L 200.031471 209.207455 
L 200.29528 209.661051 
L 200.559089 210.112825 
L 200.822898 210.56268 
L 201.086707 211.010522 
L 201.350516 211.456253 
L 201.614325 211.899779 
L 201.878134 212.341002 
L 202.141943 212.779828 
L 202.405752 213.21616 
L 202.669561 213.649903 
L 202.93337 214.08096 
L 203.197179 214.509236 
L 203.460988 214.934634 
L 203.724797 215.357059 
L 203.988606 215.776415 
L 204.252415 216.192605 
L 204.516224 216.605535 
L 204.780033 217.015108 
L 205.043842 217.421228 
L 205.307651 217.8238 
L 205.57146 218.222726 
L 205.835269 218.617913 
L 206.099078 219.009262 
L 206.362887 219.39668 
L 206.626696 219.780069 
L 206.890505 220.159334 
L 207.154314 220.534379 
L 207.418123 220.905107 
L 207.681932 221.271424 
L 207.945741 221.633234 
L 208.20955 221.990439 
L 208.473359 222.342945 
L 208.737168 222.690655 
L 209.000977 223.033473 
L 209.264786 223.371305 
L 209.528595 223.704053 
L 209.792404 224.031622 
L 210.056213 224.353915 
L 210.320022 224.670838 
L 210.583831 224.982294 
L 210.84764 225.288187 
L 211.111449 225.588421 
L 211.375258 225.8829 
L 211.639067 226.171529 
L 211.902876 226.454211 
L 212.166685 226.730851 
L 212.430494 227.001353 
L 212.694303 227.26562 
L 212.958112 227.523557 
L 213.221921 227.775069 
L 213.48573 228.020058 
L 213.749539 228.258429 
L 214.013348 228.490087 
L 214.277157 228.714935 
L 214.540966 228.932877 
L 214.804775 229.143818 
L 215.068584 229.347661 
L 215.332393 229.544311 
L 215.596202 229.733672 
L 215.860011 229.915647 
L 216.12382 230.090142 
L 216.387629 230.257059 
L 216.651438 230.416304 
L 216.915247 230.56778 
L 217.179056 230.711391 
L 217.442865 230.847041 
L 217.706674 230.974635 
L 217.970483 231.094077 
L 218.234292 231.20527 
L 218.498101 231.308118 
L 218.76191 231.402527 
L 219.025719 231.4884 
L 219.289528 231.56564 
L 219.553337 231.634153 
L 219.817146 231.693841 
L 220.080955 231.74461 
L 220.344764 231.786364 
L 220.608573 231.819006 
L 220.872382 231.84244 
L 221.136191 231.856571 
L 221.4 231.861302 
" clip-path="url(#p17c872fcd4)" style="fill: none; stroke: #000000; stroke-width: 1.5; stroke-linecap: square"/>
   </g>
   <g id="line2d_31">
    <path d="M 221.4 231.861302 
L 221.663809 231.856571 
L 221.927618 231.84244 
L 222.191427 231.819006 
L 222.455236 231.786364 
L 222.719045 231.74461 
L 222.982854 231.693841 
L 223.246663 231.634153 
L 223.510472 231.56564 
L 223.774281 231.4884 
L 224.03809 231.402527 
L 224.301899 231.308118 
L 224.565708 231.20527 
L 224.829517 231.094077 
L 225.093326 230.974635 
L 225.357135 230.847041 
L 225.620944 230.711391 
L 225.884753 230.56778 
L 226.148562 230.416304 
L 226.412371 230.257059 
L 226.67618 230.090142 
L 226.939989 229.915647 
L 227.203798 229.733672 
L 227.467607 229.544311 
L 227.731416 229.347661 
L 227.995225 229.143818 
L 228.259034 228.932877 
L 228.522843 228.714935 
L 228.786652 228.490087 
L 229.050461 228.258429 
L 229.31427 228.020058 
L 229.578079 227.775069 
L 229.841888 227.523557 
L 230.105697 227.26562 
L 230.369506 227.001353 
L 230.633315 226.730851 
L 230.897124 226.454211 
L 231.160933 226.171529 
L 231.424742 225.8829 
L 231.688551 225.588421 
L 231.95236 225.288187 
L 232.216169 224.982294 
L 232.479978 224.670838 
L 232.743787 224.353915 
L 233.007596 224.031622 
L 233.271405 223.704053 
L 233.535214 223.371305 
L 233.799023 223.033473 
L 234.062832 222.690655 
L 234.326641 222.342945 
L 234.59045 221.990439 
L 234.854259 221.633234 
L 235.118068 221.271424 
L 235.381877 220.905107 
L 235.645686 220.534379 
L 235.909495 220.159334 
L 236.173304 219.780069 
L 236.437113 219.39668 
L 236.700922 219.009262 
L 236.964731 218.617913 
L 237.22854 218.222726 
L 237.492349 217.8238 
L 237.756158 217.421228 
L 238.019967 217.015108 
L 238.283776 216.605535 
L 238.547585 216.192605 
L 238.811394 215.776415 
L 239.075203 215.357059 
L 239.339012 214.934634 
L 239.602821 214.509236 
L 239.86663 214.08096 
L 240.130439 213.649903 
L 240.394248 213.21616 
L 240.658057 212.779828 
L 240.921866 212.341002 
L 241.185675 211.899779 
L 241.449484 211.456253 
L 241.713293 211.010522 
L 241.977102 210.56268 
L 242.240911 210.112825 
L 242.50472 209.661051 
L 242.768529 209.207455 
L 243.032338 208.752132 
L 243.296147 208.295179 
L 243.559956 207.836692 
L 243.823765 207.376765 
L 244.087574 206.915496 
L 244.351383 206.45298 
L 244.615192 205.989314 
L 244.879001 205.524592 
L 245.14281 205.058911 
L 245.406619 204.592367 
L 245.670428 204.125055 
L 245.934237 203.657072 
L 246.198046 203.188514 
L 246.461855 202.719476 
L 246.725664 202.250055 
L 246.989473 201.780345 
L 247.253282 201.310444 
L 247.517091 200.840447 
" clip-path="url(#p17c872fcd4)" style="fill: none; stroke: #000000; stroke-width: 1.5; stroke-linecap: square"/>
   </g>
   <g id="line2d_32">
    <path d="M 188.753636 196.96284 
L 189.148684 197.117929 
L 189.542399 197.269852 
L 189.934781 197.418611 
L 190.325831 197.564204 
L 190.715549 197.706632 
L 191.103935 197.845895 
L 191.490988 197.981993 
L 191.876709 198.114926 
L 192.261097 198.244694 
L 192.644153 198.371297 
L 193.025877 198.494735 
L 193.406268 198.615007 
L 193.785327 198.732115 
L 194.163053 198.846057 
L 194.539447 198.956835 
L 194.914509 199.064447 
L 195.288239 199.168895 
L 195.660636 199.270177 
L 196.0317 199.368294 
L 196.401433 199.463246 
L 196.769833 199.555033 
L 197.1369 199.643655 
L 197.502635 199.729112 
L 197.867038 199.811404 
L 198.230109 199.890531 
L 198.591847 199.966492 
L 198.952252 200.039289 
L 199.311326 200.10892 
L 199.669067 200.175387 
L 200.025475 200.238688 
L 200.380552 200.298825 
L 200.734296 200.355796 
L 201.086707 200.409602 
L 201.437786 200.460243 
L 201.787533 200.507719 
L 202.135947 200.55203 
L 202.483029 200.593176 
L 202.828779 200.631157 
L 203.173196 200.665973 
L 203.516281 200.697624 
L 203.858034 200.726109 
L 204.198454 200.75143 
L 204.537542 200.773585 
L 204.875297 200.792576 
L 205.211721 200.808401 
L 205.546811 200.821061 
L 205.88057 200.830557 
L 206.212996 200.836887 
L 206.544089 200.840052 
L 206.87385 200.840052 
L 207.202279 200.836887 
L 207.529376 200.830557 
L 207.85514 200.821061 
L 208.179572 200.808401 
L 208.502671 200.792576 
L 208.824438 200.773585 
L 209.144873 200.75143 
L 209.463975 200.726109 
L 209.781745 200.697624 
L 210.098183 200.665973 
L 210.413288 200.631157 
L 210.727061 200.593176 
L 211.039501 200.55203 
L 211.350609 200.507719 
L 211.660385 200.460243 
L 211.968828 200.409602 
L 212.275939 200.355796 
L 212.581718 200.298825 
L 212.886164 200.238688 
L 213.189278 200.175387 
L 213.49106 200.10892 
L 213.791509 200.039289 
L 214.090625 199.966492 
L 214.38841 199.890531 
L 214.684862 199.811404 
L 214.979982 199.729112 
L 215.273769 199.643655 
L 215.566224 199.555033 
L 215.857346 199.463246 
L 216.147136 199.368294 
L 216.435594 199.270177 
L 216.72272 199.168895 
L 217.008513 199.064447 
L 217.292974 198.956835 
L 217.576102 198.846057 
L 217.857898 198.732115 
L 218.138361 198.615007 
L 218.417493 198.494735 
L 218.695292 198.371297 
L 218.971758 198.244694 
L 219.246892 198.114926 
L 219.520694 197.981993 
L 219.793163 197.845895 
L 220.0643 197.706632 
L 220.334105 197.564204 
L 220.602577 197.418611 
L 220.869717 197.269852 
L 221.135525 197.117929 
L 221.4 196.96284 
" clip-path="url(#p17c872fcd4)" style="fill: none; stroke: #000000; stroke-width: 1.5; stroke-linecap: square"/>
   </g>
   <g id="line2d_33">
    <path d="M 221.4 196.96284 
L 221.664475 197.117929 
L 221.930283 197.269852 
L 222.197423 197.418611 
L 222.465895 197.564204 
L 222.7357 197.706632 
L 223.006837 197.845895 
L 223.279306 197.981993 
L 223.553108 198.114926 
L 223.828242 198.244694 
L 224.104708 198.371297 
L 224.382507 198.494735 
L 224.661639 198.615007 
L 224.942102 198.732115 
L 225.223898 198.846057 
L 225.507026 198.956835 
L 225.791487 199.064447 
L 226.07728 199.168895 
L 226.364406 199.270177 
L 226.652864 199.368294 
L 226.942654 199.463246 
L 227.233776 199.555033 
L 227.526231 199.643655 
L 227.820018 199.729112 
L 228.115138 199.811404 
L 228.41159 199.890531 
L 228.709375 199.966492 
L 229.008491 200.039289 
L 229.30894 200.10892 
L 229.610722 200.175387 
L 229.913836 200.238688 
L 230.218282 200.298825 
L 230.524061 200.355796 
L 230.831172 200.409602 
L 231.139615 200.460243 
L 231.449391 200.507719 
L 231.760499 200.55203 
L 232.072939 200.593176 
L 232.386712 200.631157 
L 232.701817 200.665973 
L 233.018255 200.697624 
L 233.336025 200.726109 
L 233.655127 200.75143 
L 233.975562 200.773585 
L 234.297329 200.792576 
L 234.620428 200.808401 
L 234.94486 200.821061 
L 235.270624 200.830557 
L 235.597721 200.836887 
L 235.92615 200.840052 
L 236.255911 200.840052 
L 236.587004 200.836887 
L 236.91943 200.830557 
L 237.253189 200.821061 
L 237.588279 200.808401 
L 237.924703 200.792576 
L 238.262458 200.773585 
L 238.601546 200.75143 
L 238.941966 200.726109 
L 239.283719 200.697624 
L 239.626804 200.665973 
L 239.971221 200.631157 
L 240.316971 200.593176 
L 240.664053 200.55203 
L 241.012467 200.507719 
L 241.362214 200.460243 
L 241.713293 200.409602 
L 242.065704 200.355796 
L 242.419448 200.298825 
L 242.774525 200.238688 
L 243.130933 200.175387 
L 243.488674 200.10892 
L 243.847748 200.039289 
L 244.208153 199.966492 
L 244.569891 199.890531 
L 244.932962 199.811404 
L 245.297365 199.729112 
L 245.6631 199.643655 
L 246.030167 199.555033 
L 246.398567 199.463246 
L 246.7683 199.368294 
L 247.139364 199.270177 
L 247.511761 199.168895 
L 247.885491 199.064447 
L 248.260553 198.956835 
L 248.636947 198.846057 
L 249.014673 198.732115 
L 249.393732 198.615007 
L 249.774123 198.494735 
L 250.155847 198.371297 
L 250.538903 198.244694 
L 250.923291 198.114926 
L 251.309012 197.981993 
L 251.696065 197.845895 
L 252.084451 197.706632 
L 252.474169 197.564204 
L 252.865219 197.418611 
L 253.257601 197.269852 
L 253.651316 197.117929 
L 254.046364 196.96284 
" clip-path="url(#p17c872fcd4)" style="fill: none; stroke: #000000; stroke-width: 1.5; stroke-linecap: square"/>
   </g>
   <g id="patch_3">
    <path d="M 54 252 
L 54 34.56 
" style="fill: none; stroke: #000000; stroke-width: 0.8; stroke-linejoin: miter; stroke-linecap: square"/>
   </g>
   <g id="patch_4">
    <path d="M 388.8 252 
L 388.8 34.56 
" style="fill: none; stroke: #000000; stroke-width: 0.8; stroke-linejoin: miter; stroke-linecap: square"/>
   </g>
   <g id="patch_5">
    <path d="M 54 252 
L 388.8 252 
" style="fill: none; stroke: #000000; stroke-width: 0.8; stroke-linejoin: miter; stroke-linecap: square"/>
   </g>
   <g id="patch_6">
    <path d="M 54 34.56 
L 388.8 34.56 
" style="fill: none; stroke: #000000; stroke-width: 0.8; stroke-linejoin: miter; stroke-linecap: square"/>
   </g>
  </g>
 </g>
 <defs>
  <clipPath id="p17c872fcd4">
   <rect x="54" y="34.56" width="334.8" height="217.44"/>
  </clipPath>
 </defs>
</svg>
